<svg width="20" height="20" viewBox="0 0 20 20" fill="none" xmlns="http://www.w3.org/2000/svg">
<path d="M9.16671 17.5H3.33337C3.33337 14.5612 5.50647 12.1301 8.33337 11.7257M16.5605 12.6698C16.5037 12.6732 16.4465 12.675 16.389 12.675C15.5352 12.675 14.7565 12.2937 14.1667 11.6667C13.577 12.2937 12.7982 12.6749 11.9445 12.6749C11.887 12.6749 11.8297 12.6732 11.7729 12.6697C11.7035 12.9877 11.6667 13.3212 11.6667 13.6649C11.6667 15.5101 12.729 17.0604 14.1667 17.5C15.6044 17.0604 16.6667 15.5101 16.6667 13.6649C16.6667 13.3212 16.6299 12.9877 16.5605 12.6698ZM12.5 5.83333C12.5 7.67428 11.0076 9.16667 9.16671 9.16667C7.32576 9.16667 5.83337 7.67428 5.83337 5.83333C5.83337 3.99238 7.32576 2.5 9.16671 2.5C11.0076 2.5 12.5 3.99238 12.5 5.83333Z" stroke="#512DA8" stroke-width="1.2" stroke-linecap="round" stroke-linejoin="round"/>
</svg>
