<svg width="26" height="26" viewBox="0 0 26 26" fill="none" xmlns="http://www.w3.org/2000/svg">
<path d="M17.5579 10.4104H20.5965" stroke="#512DA8" stroke-width="1.2" stroke-linecap="round" stroke-linejoin="round"/>
<path d="M19.0771 8.89111V11.9297" stroke="#512DA8" stroke-width="0.934951" stroke-linecap="round" stroke-linejoin="round"/>
<path d="M23.6351 10.4104C23.6351 12.9277 21.5944 14.9683 19.0772 14.9683C16.5599 14.9683 14.5193 12.9277 14.5193 10.4104C14.5193 7.89318 16.5599 5.85254 19.0772 5.85254C21.5944 5.85254 23.6351 7.89318 23.6351 10.4104Z" stroke="#512DA8"/>
<path d="M22.5443 17.1497L22.5443 17.1497C21.1403 18.0419 19.349 18.7452 17.7359 19.0365L17.7359 19.0365C17.4742 19.0837 17.1807 19.1058 16.8658 19.1058L22.5443 17.1497ZM22.5443 17.1497C22.6472 17.0843 22.729 17.0653 22.7917 17.0653C22.8996 17.0653 23.0335 17.1311 23.1066 17.3403L23.1066 17.3403C23.2078 17.6298 23.1301 18.0711 22.725 18.5193M22.5443 17.1497L22.725 18.5193M22.725 18.5193C22.5718 18.6888 22.237 18.9741 21.7698 19.327C21.3123 19.6726 20.7551 20.0628 20.1796 20.4391C19.6037 20.8156 19.0149 21.1746 18.4943 21.4592C17.9622 21.75 17.5372 21.943 17.2766 22.0127L17.2764 22.0127C17.2593 22.0173 17.1973 22.0279 17.0581 22.0279H17.0579C17.0579 22.0279 17.0579 22.0279 17.0579 22.0279C16.3032 22.0278 14.5518 21.7426 12.8514 21.4207C11.1684 21.102 9.61754 20.7638 9.2978 20.6803C8.9797 20.5969 8.6651 20.6667 8.38668 20.8018C8.20286 20.891 8.01987 21.0154 7.83822 21.1669C7.88797 20.2875 7.95338 19.1076 8.01645 17.9695C8.07715 16.874 8.13576 15.8171 8.17623 15.1032L22.725 18.5193ZM14.3752 18.7179L14.3752 18.7179C14.028 18.6061 13.7437 18.4808 13.5237 18.3488C13.3179 18.2254 13.1163 18.0655 13.0041 17.8607L12.5665 17.0618L13.4754 17.1216C13.6603 17.1337 13.9506 17.1965 14.218 17.2543C14.2309 17.257 14.2438 17.2598 14.2566 17.2626L14.3752 18.7179ZM14.3752 18.7179C15.1334 18.962 16.0589 19.1059 16.8658 19.1058L14.3752 18.7179ZM17.5809 16.3468L17.5807 16.3468C17.3948 16.2982 16.9959 16.1504 16.5442 15.9831L16.4988 15.9663C16.4988 15.9663 16.4988 15.9663 16.4988 15.9663C15.8038 15.7091 14.8882 15.3703 14.0009 15.0906C13.0974 14.8058 12.2824 14.602 11.7698 14.5846L11.7688 14.5845C11.4513 14.5731 10.8654 14.6364 10.2019 14.7342C9.55301 14.8299 8.87346 14.9516 8.39203 15.0418L8.39169 15.0419C8.35752 15.0483 8.32499 15.0539 8.29734 15.0587L8.29439 15.0592L8.29422 15.0592C8.26192 15.0648 8.23681 15.0691 8.21304 15.0738C8.19939 15.0765 8.18784 15.0791 8.17794 15.0814C8.17729 15.0878 8.1767 15.0949 8.17623 15.103L17.5809 16.3468ZM17.5809 16.3468C17.6519 16.3654 17.7981 16.4848 17.8025 16.752M17.5809 16.3468L17.8025 16.752M17.8025 16.752C17.8061 16.9766 17.6869 17.3051 17.1993 17.4549L17.8025 16.752ZM22.2761 16.7277C20.9259 17.5857 19.1954 18.2648 17.6471 18.5444L23.5786 17.1753C23.4471 16.799 23.1456 16.5653 22.7917 16.5653C22.6192 16.5653 22.4457 16.6199 22.2761 16.7277ZM16.3616 17.5614C15.6501 17.5614 14.8719 17.3954 14.2566 17.2626L17.1993 17.4549C16.9806 17.522 16.701 17.5614 16.3616 17.5614Z" stroke="#512DA8"/>
<path d="M2.68035 21.2917L3.29845 14.8311C3.34153 14.6738 3.47743 14.6152 3.51175 14.6165C3.51188 14.6165 3.51201 14.6165 3.51214 14.6165L6.92686 14.8102C6.92687 14.8102 6.92689 14.8102 6.9269 14.8102C6.93224 14.8105 6.93747 14.8118 6.9441 14.8154C6.95111 14.8193 6.96347 14.8281 6.97792 14.8469L6.97801 14.8471C7.00685 14.8847 7.02843 14.9436 7.02346 15.0183L7.02346 15.0184L6.60769 21.2753C6.60769 21.2754 6.60769 21.2755 6.60768 21.2755C6.60768 21.2755 6.60768 21.2756 6.60768 21.2756C6.60258 21.3511 6.57281 21.4083 6.54111 21.4421C6.51181 21.4733 6.48915 21.4778 6.47984 21.4782L6.47779 21.4782L6.47682 21.4782L6.47678 21.4782L6.46606 21.4776L6.45432 21.4777L2.68726 21.4782C2.68654 21.4776 2.68519 21.4761 2.68341 21.4734C2.67499 21.4604 2.65761 21.416 2.6722 21.3457L2.67775 21.3189L2.68035 21.2917Z" stroke="#512DA8"/>
</svg>
