<svg width="20" height="20" viewBox="0 0 20 20" fill="none" xmlns="http://www.w3.org/2000/svg">
<path d="M15.6 2.65601H13.2C12.3163 2.65601 11.6 3.37235 11.6 4.25601V6.65601C11.6 7.53966 12.3163 8.256 13.2 8.256H15.6C16.4837 8.256 17.2 7.53966 17.2 6.65601V4.25601C17.2 3.37235 16.4837 2.65601 15.6 2.65601Z" stroke="#512DA8" stroke-width="1.2" stroke-linecap="round" stroke-linejoin="round"/>
<path d="M6.80005 2.65601H4.40005C3.51639 2.65601 2.80005 3.37235 2.80005 4.25601V6.65601C2.80005 7.53966 3.51639 8.256 4.40005 8.256H6.80005C7.6837 8.256 8.40005 7.53966 8.40005 6.65601V4.25601C8.40005 3.37235 7.6837 2.65601 6.80005 2.65601Z" stroke="#512DA8" stroke-width="1.44" stroke-linecap="round" stroke-linejoin="round"/>
<path d="M15.6 11.4561H13.2C12.3163 11.4561 11.6 12.1724 11.6 13.0561V15.4561C11.6 16.3397 12.3163 17.0561 13.2 17.0561H15.6C16.4837 17.0561 17.2 16.3397 17.2 15.4561V13.0561C17.2 12.1724 16.4837 11.4561 15.6 11.4561Z" stroke="#512DA8" stroke-width="1.44" stroke-linecap="round" stroke-linejoin="round"/>
<path d="M6.80005 11.4561H4.40005C3.51639 11.4561 2.80005 12.1724 2.80005 13.0561V15.4561C2.80005 16.3397 3.51639 17.0561 4.40005 17.0561H6.80005C7.6837 17.0561 8.40005 16.3397 8.40005 15.4561V13.0561C8.40005 12.1724 7.6837 11.4561 6.80005 11.4561Z" stroke="#512DA8" stroke-width="1.44" stroke-linecap="round" stroke-linejoin="round"/>
</svg>
